<?xml version="1.0" encoding="UTF-8" standalone="no"?>
<!-- Created with Inkscape (http://www.inkscape.org/) -->

<svg
   version="1.1"
   id="svg753"
   xml:space="preserve"
   width="32"
   height="32"
   viewBox="0 0 32 32"
   xmlns="http://www.w3.org/2000/svg"
   xmlns:svg="http://www.w3.org/2000/svg"><defs
     id="defs757"><clipPath
       clipPathUnits="userSpaceOnUse"
       id="clipPath767"><path
         d="M 0,24 H 24 V 0 H 0 Z"
         id="path765" /></clipPath></defs><g
     id="g759"
     transform="matrix(1.3333333,0,0,-1.3333333,0,32)"><g
       id="g761"><g
         id="g763"
         clip-path="url(#clipPath767)"><g
           id="g769"
           transform="translate(23.125,7.2578)"><path
             d="m 0,0 -4.125,-6.685 m -18.484,18.391 6.734,4.121"
             style="fill:none;stroke:#000000;stroke-width:2;stroke-linecap:butt;stroke-linejoin:miter;stroke-miterlimit:10;stroke-dasharray:none;stroke-opacity:1"
             id="path771" /></g><g
           id="g773"
           transform="translate(1.5596,12.1504)"><path
             d="m 0,0 c -0.854,0.854 -0.711,2.277 0.297,2.944 l 7.732,4.732 c 2.963,1.885 6.766,1.467 9.248,-1.016 2.353,-2.352 2.852,-6.018 1.216,-8.914 l -4.908,-7.954 c -0.634,-1.078 -2.115,-1.267 -2.999,-0.382 z"
             style="fill:none;stroke:#000000;stroke-width:2;stroke-linecap:butt;stroke-linejoin:miter;stroke-miterlimit:10;stroke-dasharray:none;stroke-opacity:1"
             id="path775" /></g><g
           id="g777"
           transform="translate(10.418,3.0586)"><path
             d="m 0,0 c -1.468,-1.469 -3.849,-1.469 -5.316,0 -1.469,1.468 -1.469,3.849 0,5.316"
             style="fill:none;stroke:#000000;stroke-width:2;stroke-linecap:butt;stroke-linejoin:miter;stroke-miterlimit:10;stroke-dasharray:none;stroke-opacity:1"
             id="path779" /></g><g
           id="g781"
           transform="translate(21.375,21.375)"><path
             d="M 0,0 -2.375,-2.375"
             style="fill:none;stroke:#000000;stroke-width:2;stroke-linecap:butt;stroke-linejoin:miter;stroke-miterlimit:10;stroke-dasharray:none;stroke-opacity:1"
             id="path783" /></g></g></g></g></svg>
